<mxfile host="app.diagrams.net" agent="Mozilla/5.0 (Windows NT 10.0; Win64; x64) AppleWebKit/537.36 (KHTML, like Gecko) Chrome/139.0.0.0 Safari/537.36" version="28.1.2">
  <diagram name="Page-1" id="EMsydUWdNl90OKtMybfy">
    <mxGraphModel dx="1042" dy="562" grid="1" gridSize="10" guides="1" tooltips="1" connect="1" arrows="1" fold="1" page="1" pageScale="1" pageWidth="827" pageHeight="1169" math="0" shadow="0">
      <root>
        <mxCell id="0" />
        <mxCell id="1" parent="0" />
        <mxCell id="JBN-9XKLVuHiImir0-er-80" value="" style="rounded=0;whiteSpace=wrap;html=1;" vertex="1" parent="1">
          <mxGeometry x="290" y="50" width="460" height="720" as="geometry" />
        </mxCell>
        <mxCell id="JBN-9XKLVuHiImir0-er-81" value="" style="ellipse;whiteSpace=wrap;html=1;aspect=fixed;fillColor=light-dark(#330000,#FFFFFF);" vertex="1" parent="1">
          <mxGeometry x="507" y="110" width="30" height="30" as="geometry" />
        </mxCell>
        <mxCell id="JBN-9XKLVuHiImir0-er-82" value="" style="rounded=1;whiteSpace=wrap;html=1;container=1;" vertex="1" parent="1">
          <mxGeometry x="478.91" y="190" width="81" height="40" as="geometry" />
        </mxCell>
        <mxCell id="JBN-9XKLVuHiImir0-er-83" value="View Cart" style="text;strokeColor=none;align=center;fillColor=none;html=1;verticalAlign=middle;whiteSpace=wrap;rounded=0;container=1;" vertex="1" collapsed="1" parent="JBN-9XKLVuHiImir0-er-82">
          <mxGeometry x="8.407800000000002" width="64.17630000000001" height="35" as="geometry">
            <mxRectangle x="351" y="255" width="100" height="30" as="alternateBounds" />
          </mxGeometry>
        </mxCell>
        <mxCell id="JBN-9XKLVuHiImir0-er-84" value="" style="endArrow=classic;html=1;rounded=0;exitX=0.5;exitY=1;exitDx=0;exitDy=0;" edge="1" parent="1">
          <mxGeometry width="50" height="50" relative="1" as="geometry">
            <mxPoint x="521" y="140" as="sourcePoint" />
            <mxPoint x="521" y="190" as="targetPoint" />
          </mxGeometry>
        </mxCell>
        <mxCell id="JBN-9XKLVuHiImir0-er-85" value="" style="endArrow=classic;html=1;rounded=0;exitX=0.5;exitY=1;exitDx=0;exitDy=0;" edge="1" parent="1">
          <mxGeometry width="50" height="50" relative="1" as="geometry">
            <mxPoint x="518.9100000000001" y="230" as="sourcePoint" />
            <mxPoint x="518.9100000000001" y="280" as="targetPoint" />
          </mxGeometry>
        </mxCell>
        <mxCell id="JBN-9XKLVuHiImir0-er-86" value="" style="rounded=1;whiteSpace=wrap;html=1;container=1;" vertex="1" parent="1">
          <mxGeometry x="441" y="280" width="130" height="40" as="geometry" />
        </mxCell>
        <mxCell id="JBN-9XKLVuHiImir0-er-87" value="Cart is Empty or With Products" style="text;strokeColor=none;align=center;fillColor=none;html=1;verticalAlign=middle;whiteSpace=wrap;rounded=0;container=1;" vertex="1" collapsed="1" parent="JBN-9XKLVuHiImir0-er-86">
          <mxGeometry x="8.41" width="121.59" height="35" as="geometry">
            <mxRectangle x="351" y="255" width="100" height="30" as="alternateBounds" />
          </mxGeometry>
        </mxCell>
        <mxCell id="JBN-9XKLVuHiImir0-er-88" value="" style="endArrow=classic;html=1;rounded=0;exitX=0;exitY=0.5;exitDx=0;exitDy=0;" edge="1" parent="1" source="JBN-9XKLVuHiImir0-er-86">
          <mxGeometry width="50" height="50" relative="1" as="geometry">
            <mxPoint x="403" y="300" as="sourcePoint" />
            <mxPoint x="403" y="360" as="targetPoint" />
            <Array as="points">
              <mxPoint x="403" y="300" />
            </Array>
          </mxGeometry>
        </mxCell>
        <mxCell id="JBN-9XKLVuHiImir0-er-89" value="" style="rounded=1;whiteSpace=wrap;html=1;container=1;" vertex="1" parent="1">
          <mxGeometry x="360" y="360" width="81" height="40" as="geometry" />
        </mxCell>
        <mxCell id="JBN-9XKLVuHiImir0-er-90" value="Add Product" style="text;strokeColor=none;align=center;fillColor=none;html=1;verticalAlign=middle;whiteSpace=wrap;rounded=0;container=1;" vertex="1" collapsed="1" parent="JBN-9XKLVuHiImir0-er-89">
          <mxGeometry x="8.407800000000002" width="64.17630000000001" height="35" as="geometry">
            <mxRectangle x="351" y="255" width="100" height="30" as="alternateBounds" />
          </mxGeometry>
        </mxCell>
        <mxCell id="JBN-9XKLVuHiImir0-er-91" value="" style="rounded=1;whiteSpace=wrap;html=1;container=1;" vertex="1" parent="1">
          <mxGeometry x="474.40999999999997" y="360" width="90" height="40" as="geometry" />
        </mxCell>
        <mxCell id="JBN-9XKLVuHiImir0-er-92" value="Update&amp;nbsp;&lt;div&gt;Product&lt;/div&gt;" style="text;strokeColor=none;align=center;fillColor=none;html=1;verticalAlign=middle;whiteSpace=wrap;rounded=0;container=1;" vertex="1" collapsed="1" parent="JBN-9XKLVuHiImir0-er-91">
          <mxGeometry x="6.880909090909092" width="83.11909090909091" height="35" as="geometry">
            <mxRectangle x="351" y="255" width="100" height="30" as="alternateBounds" />
          </mxGeometry>
        </mxCell>
        <mxCell id="JBN-9XKLVuHiImir0-er-93" value="" style="endArrow=classic;html=1;rounded=0;exitX=0.5;exitY=1;exitDx=0;exitDy=0;" edge="1" parent="1">
          <mxGeometry width="50" height="50" relative="1" as="geometry">
            <mxPoint x="521" y="320" as="sourcePoint" />
            <mxPoint x="521" y="360" as="targetPoint" />
          </mxGeometry>
        </mxCell>
        <mxCell id="JBN-9XKLVuHiImir0-er-94" value="" style="endArrow=classic;html=1;rounded=0;exitX=1;exitY=0.5;exitDx=0;exitDy=0;entryX=0.25;entryY=0;entryDx=0;entryDy=0;" edge="1" parent="1" source="JBN-9XKLVuHiImir0-er-87" target="JBN-9XKLVuHiImir0-er-96">
          <mxGeometry width="50" height="50" relative="1" as="geometry">
            <mxPoint x="661" y="320" as="sourcePoint" />
            <mxPoint x="613" y="360" as="targetPoint" />
            <Array as="points">
              <mxPoint x="631" y="298" />
            </Array>
          </mxGeometry>
        </mxCell>
        <mxCell id="JBN-9XKLVuHiImir0-er-95" value="" style="rounded=1;whiteSpace=wrap;html=1;container=1;" vertex="1" parent="1">
          <mxGeometry x="603" y="360" width="90" height="40" as="geometry" />
        </mxCell>
        <mxCell id="JBN-9XKLVuHiImir0-er-96" value="Delete&lt;div&gt;Product&lt;/div&gt;" style="text;strokeColor=none;align=center;fillColor=none;html=1;verticalAlign=middle;whiteSpace=wrap;rounded=0;container=1;" vertex="1" collapsed="1" parent="JBN-9XKLVuHiImir0-er-95">
          <mxGeometry x="6.880909090909092" width="83.11909090909091" height="35" as="geometry">
            <mxRectangle x="351" y="255" width="100" height="30" as="alternateBounds" />
          </mxGeometry>
        </mxCell>
        <mxCell id="JBN-9XKLVuHiImir0-er-97" value="" style="endArrow=classic;html=1;rounded=0;exitX=0.5;exitY=1;exitDx=0;exitDy=0;entryX=-0.085;entryY=0.577;entryDx=0;entryDy=0;entryPerimeter=0;" edge="1" parent="1" target="JBN-9XKLVuHiImir0-er-100">
          <mxGeometry width="50" height="50" relative="1" as="geometry">
            <mxPoint x="400" y="400" as="sourcePoint" />
            <mxPoint x="453" y="550" as="targetPoint" />
            <Array as="points">
              <mxPoint x="400" y="550" />
            </Array>
          </mxGeometry>
        </mxCell>
        <mxCell id="JBN-9XKLVuHiImir0-er-98" value="" style="endArrow=classic;html=1;rounded=0;exitX=0.5;exitY=1;exitDx=0;exitDy=0;" edge="1" parent="1">
          <mxGeometry width="50" height="50" relative="1" as="geometry">
            <mxPoint x="633" y="400" as="sourcePoint" />
            <mxPoint x="564" y="550" as="targetPoint" />
            <Array as="points">
              <mxPoint x="633" y="550" />
            </Array>
          </mxGeometry>
        </mxCell>
        <mxCell id="JBN-9XKLVuHiImir0-er-99" value="" style="rounded=1;whiteSpace=wrap;html=1;container=1;" vertex="1" parent="1">
          <mxGeometry x="474.41" y="530" width="90" height="40" as="geometry" />
        </mxCell>
        <mxCell id="JBN-9XKLVuHiImir0-er-100" value="Place Order" style="text;strokeColor=none;align=center;fillColor=none;html=1;verticalAlign=middle;whiteSpace=wrap;rounded=0;container=1;" vertex="1" collapsed="1" parent="JBN-9XKLVuHiImir0-er-99">
          <mxGeometry x="6.880909090909092" width="83.11909090909091" height="35" as="geometry">
            <mxRectangle x="351" y="255" width="100" height="30" as="alternateBounds" />
          </mxGeometry>
        </mxCell>
        <mxCell id="JBN-9XKLVuHiImir0-er-101" value="" style="endArrow=classic;html=1;rounded=0;exitX=0;exitY=0.75;exitDx=0;exitDy=0;entryX=0.885;entryY=-0.007;entryDx=0;entryDy=0;entryPerimeter=0;" edge="1" parent="1">
          <mxGeometry width="50" height="50" relative="1" as="geometry">
            <mxPoint x="490.99999999999994" y="570" as="sourcePoint" />
            <mxPoint x="453.31" y="605" as="targetPoint" />
          </mxGeometry>
        </mxCell>
        <mxCell id="JBN-9XKLVuHiImir0-er-102" value="" style="rounded=1;whiteSpace=wrap;html=1;container=1;" vertex="1" parent="1">
          <mxGeometry x="391.29" y="605" width="90" height="40" as="geometry" />
        </mxCell>
        <mxCell id="JBN-9XKLVuHiImir0-er-103" value="View Order Details" style="text;strokeColor=none;align=center;fillColor=none;html=1;verticalAlign=middle;whiteSpace=wrap;rounded=0;container=1;" vertex="1" collapsed="1" parent="JBN-9XKLVuHiImir0-er-102">
          <mxGeometry x="6.880909090909092" width="83.11909090909091" height="35" as="geometry">
            <mxRectangle x="351" y="255" width="100" height="30" as="alternateBounds" />
          </mxGeometry>
        </mxCell>
        <mxCell id="JBN-9XKLVuHiImir0-er-104" value="" style="endArrow=classic;html=1;rounded=0;exitX=1;exitY=0.75;exitDx=0;exitDy=0;entryX=0.25;entryY=0;entryDx=0;entryDy=0;" edge="1" parent="1">
          <mxGeometry width="50" height="50" relative="1" as="geometry">
            <mxPoint x="533" y="570" as="sourcePoint" />
            <mxPoint x="573.0000000000001" y="605" as="targetPoint" />
          </mxGeometry>
        </mxCell>
        <mxCell id="JBN-9XKLVuHiImir0-er-105" value="" style="rounded=1;whiteSpace=wrap;html=1;container=1;" vertex="1" parent="1">
          <mxGeometry x="538.5799999999999" y="605" width="90" height="40" as="geometry" />
        </mxCell>
        <mxCell id="JBN-9XKLVuHiImir0-er-106" value="Cancel&amp;nbsp;&lt;div&gt;Order&lt;/div&gt;" style="text;strokeColor=none;align=center;fillColor=none;html=1;verticalAlign=middle;whiteSpace=wrap;rounded=0;container=1;" vertex="1" collapsed="1" parent="JBN-9XKLVuHiImir0-er-105">
          <mxGeometry x="6.880909090909092" width="83.11909090909091" height="35" as="geometry">
            <mxRectangle x="351" y="255" width="100" height="30" as="alternateBounds" />
          </mxGeometry>
        </mxCell>
        <mxCell id="JBN-9XKLVuHiImir0-er-107" value="" style="endArrow=classic;html=1;rounded=0;exitX=0.5;exitY=1;exitDx=0;exitDy=0;" edge="1" parent="1">
          <mxGeometry width="50" height="50" relative="1" as="geometry">
            <mxPoint x="441" y="645" as="sourcePoint" />
            <mxPoint x="502" y="720" as="targetPoint" />
            <Array as="points">
              <mxPoint x="441" y="720" />
            </Array>
          </mxGeometry>
        </mxCell>
        <mxCell id="JBN-9XKLVuHiImir0-er-108" value="" style="endArrow=classic;html=1;rounded=0;exitX=0.5;exitY=1;exitDx=0;exitDy=0;" edge="1" parent="1">
          <mxGeometry width="50" height="50" relative="1" as="geometry">
            <mxPoint x="589.5" y="645" as="sourcePoint" />
            <mxPoint x="531" y="720" as="targetPoint" />
            <Array as="points">
              <mxPoint x="590" y="720" />
            </Array>
          </mxGeometry>
        </mxCell>
        <mxCell id="JBN-9XKLVuHiImir0-er-109" value="◉" style="text;whiteSpace=wrap;fontSize=39;" vertex="1" parent="1">
          <mxGeometry x="499.41" y="690" width="40" height="45" as="geometry" />
        </mxCell>
        <mxCell id="JBN-9XKLVuHiImir0-er-110" value="" style="endArrow=classic;html=1;rounded=0;exitX=0.5;exitY=1;exitDx=0;exitDy=0;entryX=0.5;entryY=0;entryDx=0;entryDy=0;" edge="1" parent="1" target="JBN-9XKLVuHiImir0-er-100">
          <mxGeometry width="50" height="50" relative="1" as="geometry">
            <mxPoint x="521.5" y="400" as="sourcePoint" />
            <mxPoint x="521.5" y="440" as="targetPoint" />
          </mxGeometry>
        </mxCell>
        <mxCell id="JBN-9XKLVuHiImir0-er-111" value="" style="endArrow=none;html=1;rounded=0;exitX=0.006;exitY=0.138;exitDx=0;exitDy=0;exitPerimeter=0;" edge="1" parent="1">
          <mxGeometry width="50" height="50" relative="1" as="geometry">
            <mxPoint x="290" y="100" as="sourcePoint" />
            <mxPoint x="350.9999999999999" y="100.31999999999994" as="targetPoint" />
          </mxGeometry>
        </mxCell>
        <mxCell id="JBN-9XKLVuHiImir0-er-112" value="" style="endArrow=none;html=1;rounded=0;" edge="1" parent="1">
          <mxGeometry width="50" height="50" relative="1" as="geometry">
            <mxPoint x="351.41" y="100" as="sourcePoint" />
            <mxPoint x="371.41" y="80" as="targetPoint" />
          </mxGeometry>
        </mxCell>
        <mxCell id="JBN-9XKLVuHiImir0-er-113" value="" style="endArrow=none;html=1;rounded=0;" edge="1" parent="1">
          <mxGeometry width="50" height="50" relative="1" as="geometry">
            <mxPoint x="371.41" y="80" as="sourcePoint" />
            <mxPoint x="371.41" y="50" as="targetPoint" />
          </mxGeometry>
        </mxCell>
        <mxCell id="JBN-9XKLVuHiImir0-er-114" value="&lt;font style=&quot;font-size: 16px;&quot;&gt;Cart&lt;/font&gt;" style="text;html=1;align=center;verticalAlign=middle;resizable=0;points=[];autosize=1;strokeColor=none;fillColor=none;" vertex="1" parent="1">
          <mxGeometry x="300" y="60" width="50" height="30" as="geometry" />
        </mxCell>
      </root>
    </mxGraphModel>
  </diagram>
</mxfile>
